REM DIRINDEX 1\2,1\3
REM DIRNAME cjc052,folder01,folder02
TITLE ""
FILE "Disk3Track11.mp3" MP3
  TRACK 01 AUDIO
    TITLE "2:cjc052_1171"
    INDEX 01 00:00:00
  TRACK 02 AUDIO
    TITLE "2:cjc052_1172"
    INDEX 01 00:06:55
  TRACK 03 AUDIO
    TITLE "2:cjc052_1173"
    INDEX 01 00:29:62
  TRACK 04 AUDIO
    TITLE "2:cjc052_1174"
    INDEX 01 00:34:30
  TRACK 05 AUDIO
    TITLE "0:"
    INDEX 01 00:41:57
